# Blender v2.90.1 OBJ File: ''
# www.blender.org
mtllib cape1.mtl
o Cube_Cube.001
v 5.000000 -8.000000 -0.500000
v 5.000000 8.000000 -0.500000
v 5.000000 -8.000000 0.500000
v 5.000000 8.000000 0.500000
v -5.000000 -8.000000 -0.500000
v -5.000000 8.000000 -0.500000
v -5.000000 -8.000000 0.500000
v -5.000000 8.000000 0.500000
vt 0.021739 0.227273
vt 0.021739 0.954545
vt 0.000000 0.954545
vt 0.000000 0.227273
vt 0.478261 0.227273
vt 0.478261 0.954545
vt 0.260870 0.954545
vt 0.260870 0.227273
vt 0.239130 0.954545
vt 0.239130 0.227273
vt 0.456522 1.000000
vt 0.239130 1.000000
vt 0.239130 0.954545
vt 0.456522 0.954545
vt 0.239130 1.000000
vt 0.021739 1.000000
vn 1.0000 0.0000 0.0000
vn 0.0000 0.0000 1.0000
vn -1.0000 0.0000 0.0000
vn 0.0000 0.0000 -1.0000
vn 0.0000 -1.0000 0.0000
vn 0.0000 1.0000 0.0000
usemtl Material
s off
f 1/1/1 2/2/1 4/3/1 3/4/1
f 3/5/2 4/6/2 8/7/2 7/8/2
f 7/8/3 8/7/3 6/9/3 5/10/3
f 5/10/4 6/9/4 2/2/4 1/1/4
f 3/11/5 7/12/5 5/13/5 1/14/5
f 8/15/6 4/16/6 2/2/6 6/9/6
